HIERARCHY
ROOT Root
{
  OFFSET 0.0 0.0 0.0
  CHANNELS 6 Xposition Yposition Zposition Zrotation Yrotation Xrotation
  JOINT Hips
  {
    OFFSET 0.0 100.0 0.0
    CHANNELS 6 Xposition Yposition Zposition Zrotation Yrotation Xrotation
    JOINT Spine1
    {
      OFFSET 5.003913 -0.037094 -0.013727
      CHANNELS 3 Zrotation Yrotation Xrotation
      JOINT Spine2
      {
        OFFSET 7.125363 -1e-06 0.0
        CHANNELS 3 Zrotation Yrotation Xrotation
        JOINT Chest
        {
          OFFSET 7.594027 1e-06 0.0
          CHANNELS 3 Zrotation Yrotation Xrotation
          JOINT Neck1
          {
            OFFSET 26.313086 -0.460272 -0.181672
            CHANNELS 3 Zrotation Yrotation Xrotation
            JOINT Neck2
            {
              OFFSET 8.045911 0.0 0.0
              CHANNELS 3 Zrotation Yrotation Xrotation
              JOINT Head
              {
                OFFSET 6.432774 0.0 0.0
                CHANNELS 3 Zrotation Yrotation Xrotation
                JOINT HeadEnd
                {
                  OFFSET 16.169773 0.06451 0.00362
                  CHANNELS 3 Zrotation Yrotation Xrotation
                }
                JOINT Jaw
                {
                  OFFSET 0.108741 3.12938 0.002639
                  CHANNELS 3 Zrotation Yrotation Xrotation
                }
                JOINT LeftEye
                {
                  OFFSET 4.45173 8.166359 3.206392
                  CHANNELS 3 Zrotation Yrotation Xrotation
                }
                JOINT RightEye
                {
                  OFFSET 4.436895 8.135758 -3.222429
                  CHANNELS 3 Zrotation Yrotation Xrotation
                }
              }
            }
          }
          JOINT LeftShoulder
          {
            OFFSET 23.218927 5.195579 1.621656
            CHANNELS 3 Zrotation Yrotation Xrotation
            JOINT LeftArm
            {
              OFFSET 15.902118 2e-06 -2e-06
              CHANNELS 3 Zrotation Yrotation Xrotation
              JOINT LeftForeArm
              {
                OFFSET 28.739307 0.0 -1e-06
                CHANNELS 3 Zrotation Yrotation Xrotation
                JOINT LeftHand
                {
                  OFFSET 27.093981 -4e-06 0.0
                  CHANNELS 3 Zrotation Yrotation Xrotation
                  JOINT LeftHandThumb1
                  {
                    OFFSET 2.276781 3.380274 0.83384
                    CHANNELS 3 Zrotation Yrotation Xrotation
                    JOINT LeftHandThumb2
                    {
                      OFFSET 4.705309 -1e-06 -1e-06
                      CHANNELS 3 Zrotation Yrotation Xrotation
                      JOINT LeftHandThumb3
                      {
                        OFFSET 2.798515 0.0 3e-06
                        CHANNELS 3 Zrotation Yrotation Xrotation
                        JOINT LeftHandThumbEnd
                        {
                          OFFSET 3.180793 4e-06 -4e-06
                          CHANNELS 3 Zrotation Yrotation Xrotation
                        }
                      }
                    }
                  }
                  JOINT LeftHandIndex1
                  {
                    OFFSET 3.247786 2.352677 0.137192
                    CHANNELS 3 Zrotation Yrotation Xrotation
                    JOINT LeftHandIndex2
                    {
                      OFFSET 6.367095 1e-06 0.0
                      CHANNELS 3 Zrotation Yrotation Xrotation
                      JOINT LeftHandIndex3
                      {
                        OFFSET 3.662364 0.0 0.0
                        CHANNELS 3 Zrotation Yrotation Xrotation
                        JOINT LeftHandIndex4
                        {
                          OFFSET 2.329242 4e-06 -4e-06
                          CHANNELS 3 Zrotation Yrotation Xrotation
                          JOINT LeftHandIndexEnd
                          {
                            OFFSET 2.767823 1e-06 0.0
                            CHANNELS 3 Zrotation Yrotation Xrotation
                          }
                        }
                      }
                    }
                  }
                  JOINT LeftHandMiddle1
                  {
                    OFFSET 3.163612 0.945023 -0.406112
                    CHANNELS 3 Zrotation Yrotation Xrotation
                    JOINT LeftHandMiddle2
                    {
                      OFFSET 6.276789 3e-06 0.0
                      CHANNELS 3 Zrotation Yrotation Xrotation
                      JOINT LeftHandMiddle3
                      {
                        OFFSET 4.35652 -1e-06 4e-06
                        CHANNELS 3 Zrotation Yrotation Xrotation
                        JOINT LeftHandMiddle4
                        {
                          OFFSET 2.996877 0.0 8e-06
                          CHANNELS 3 Zrotation Yrotation Xrotation
                          JOINT LeftHandMiddleEnd
                          {
                            OFFSET 2.323256 3e-06 -4e-06
                            CHANNELS 3 Zrotation Yrotation Xrotation
                          }
                        }
                      }
                    }
                  }
                  JOINT LeftHandRing1
                  {
                    OFFSET 2.882606 -0.309162 0.107445
                    CHANNELS 3 Zrotation Yrotation Xrotation
                    JOINT LeftHandRing2
                    {
                      OFFSET 6.033198 0.0 4e-06
                      CHANNELS 3 Zrotation Yrotation Xrotation
                      JOINT LeftHandRing3
                      {
                        OFFSET 4.350578 3e-06 0.0
                        CHANNELS 3 Zrotation Yrotation Xrotation
                        JOINT LeftHandRing4
                        {
                          OFFSET 2.651321 2e-06 -7e-06
                          CHANNELS 3 Zrotation Yrotation Xrotation
                          JOINT LeftHandRingEnd
                          {
                            OFFSET 1.937663 1e-06 -4e-06
                            CHANNELS 3 Zrotation Yrotation Xrotation
                          }
                        }
                      }
                    }
                  }
                  JOINT LeftHandPinky1
                  {
                    OFFSET 2.865315 -1.525436 0.575687
                    CHANNELS 3 Zrotation Yrotation Xrotation
                    JOINT LeftHandPinky2
                    {
                      OFFSET 5.54936 1e-06 -8e-06
                      CHANNELS 3 Zrotation Yrotation Xrotation
                      JOINT LeftHandPinky3
                      {
                        OFFSET 3.070974 0.0 -4e-06
                        CHANNELS 3 Zrotation Yrotation Xrotation
                        JOINT LeftHandPinky4
                        {
                          OFFSET 1.549672 1e-06 0.0
                          CHANNELS 3 Zrotation Yrotation Xrotation
                          JOINT LeftHandPinkyEnd
                          {
                            OFFSET 1.952123 0.0 0.0
                            CHANNELS 3 Zrotation Yrotation Xrotation
                          }
                        }
                      }
                    }
                  }
                }
              }
            }
          }
          JOINT RightShoulder
          {
            OFFSET 23.161716 5.296122 -1.380114
            CHANNELS 3 Zrotation Yrotation Xrotation
            JOINT RightArm
            {
              OFFSET -16.027195 -2e-06 1.1e-05
              CHANNELS 3 Zrotation Yrotation Xrotation
              JOINT RightForeArm
              {
                OFFSET -28.736639 4e-06 2e-06
                CHANNELS 3 Zrotation Yrotation Xrotation
                JOINT RightHand
                {
                  OFFSET -27.133619 6e-06 0.0
                  CHANNELS 3 Zrotation Yrotation Xrotation
                  JOINT RightHandThumb1
                  {
                    OFFSET -2.274328 -3.351035 -0.83067
                    CHANNELS 3 Zrotation Yrotation Xrotation
                    JOINT RightHandThumb2
                    {
                      OFFSET -4.703594 -3e-06 2e-06
                      CHANNELS 3 Zrotation Yrotation Xrotation
                      JOINT RightHandThumb3
                      {
                        OFFSET -2.794935 -4e-06 -3e-06
                        CHANNELS 3 Zrotation Yrotation Xrotation
                        JOINT RightHandThumbEnd
                        {
                          OFFSET -3.183852 4e-06 1e-06
                          CHANNELS 3 Zrotation Yrotation Xrotation
                        }
                      }
                    }
                  }
                  JOINT RightHandIndex1
                  {
                    OFFSET -3.253496 -2.33755 -0.127667
                    CHANNELS 3 Zrotation Yrotation Xrotation
                    JOINT RightHandIndex2
                    {
                      OFFSET -6.344434 0.0 0.0
                      CHANNELS 3 Zrotation Yrotation Xrotation
                      JOINT RightHandIndex3
                      {
                        OFFSET -3.654871 0.0 -8e-06
                        CHANNELS 3 Zrotation Yrotation Xrotation
                        JOINT RightHandIndex4
                        {
                          OFFSET -2.327586 -1e-06 0.0
                          CHANNELS 3 Zrotation Yrotation Xrotation
                          JOINT RightHandIndexEnd
                          {
                            OFFSET -2.770001 3e-06 8e-06
                            CHANNELS 3 Zrotation Yrotation Xrotation
                          }
                        }
                      }
                    }
                  }
                  JOINT RightHandMiddle1
                  {
                    OFFSET -3.168223 -0.944764 0.411762
                    CHANNELS 3 Zrotation Yrotation Xrotation
                    JOINT RightHandMiddle2
                    {
                      OFFSET -6.266691 -1e-06 -4e-06
                      CHANNELS 3 Zrotation Yrotation Xrotation
                      JOINT RightHandMiddle3
                      {
                        OFFSET -4.348901 0.0 0.0
                        CHANNELS 3 Zrotation Yrotation Xrotation
                        JOINT RightHandMiddle4
                        {
                          OFFSET -3.00024 2e-06 -4e-06
                          CHANNELS 3 Zrotation Yrotation Xrotation
                          JOINT RightHandMiddleEnd
                          {
                            OFFSET -2.321477 -4e-06 -4e-06
                            CHANNELS 3 Zrotation Yrotation Xrotation
                          }
                        }
                      }
                    }
                  }
                  JOINT RightHandRing1
                  {
                    OFFSET -2.885654 0.293261 -0.119232
                    CHANNELS 3 Zrotation Yrotation Xrotation
                    JOINT RightHandRing2
                    {
                      OFFSET -6.032835 -1e-06 -4e-06
                      CHANNELS 3 Zrotation Yrotation Xrotation
                      JOINT RightHandRing3
                      {
                        OFFSET -4.33881 0.0 -4e-06
                        CHANNELS 3 Zrotation Yrotation Xrotation
                        JOINT RightHandRing4
                        {
                          OFFSET -2.654903 -4e-06 -4e-06
                          CHANNELS 3 Zrotation Yrotation Xrotation
                          JOINT RightHandRingEnd
                          {
                            OFFSET -1.935122 0.0 4e-06
                            CHANNELS 3 Zrotation Yrotation Xrotation
                          }
                        }
                      }
                    }
                  }
                  JOINT RightHandPinky1
                  {
                    OFFSET -2.866241 1.503904 -0.60527
                    CHANNELS 3 Zrotation Yrotation Xrotation
                    JOINT RightHandPinky2
                    {
                      OFFSET -5.553177 -2e-06 0.0
                      CHANNELS 3 Zrotation Yrotation Xrotation
                      JOINT RightHandPinky3
                      {
                        OFFSET -3.062664 -1e-06 -4e-06
                        CHANNELS 3 Zrotation Yrotation Xrotation
                        JOINT RightHandPinky4
                        {
                          OFFSET -1.546529 2e-06 4e-06
                          CHANNELS 3 Zrotation Yrotation Xrotation
                          JOINT RightHandPinkyEnd
                          {
                            OFFSET -1.952341 0.0 -4e-06
                            CHANNELS 3 Zrotation Yrotation Xrotation
                          }
                        }
                      }
                    }
                  }
                }
              }
            }
          }
        }
      }
    }
    JOINT LeftLeg
    {
      OFFSET -8.443107 2.567604 10.043214
      CHANNELS 3 Zrotation Yrotation Xrotation
      JOINT LeftShin
      {
        OFFSET 43.229198 1e-06 -1e-06
        CHANNELS 3 Zrotation Yrotation Xrotation
        JOINT LeftFoot
        {
          OFFSET 42.298611 1e-06 1e-06
          CHANNELS 3 Zrotation Yrotation Xrotation
          JOINT LeftToeBase
          {
            OFFSET 14.165858 1e-06 0.0
            CHANNELS 3 Zrotation Yrotation Xrotation
            JOINT LeftToeEnd
            {
              OFFSET 6.7141 -0.234461 0.0
              CHANNELS 3 Zrotation Yrotation Xrotation
            }
          }
        }
      }
    }
    JOINT RightLeg
    {
      OFFSET -8.303923 2.592729 -10.047278
      CHANNELS 3 Zrotation Yrotation Xrotation
      JOINT RightShin
      {
        OFFSET -43.369682 0.0 1e-06
        CHANNELS 3 Zrotation Yrotation Xrotation
        JOINT RightFoot
        {
          OFFSET -42.260784 4e-06 2e-06
          CHANNELS 3 Zrotation Yrotation Xrotation
          JOINT RightToeBase
          {
            OFFSET -14.222245 -2e-06 -1e-06
            CHANNELS 3 Zrotation Yrotation Xrotation
            JOINT RightToeEnd
            {
              OFFSET -6.660062 0.232574 -2e-06
              CHANNELS 3 Zrotation Yrotation Xrotation
            }
          }
        }
      }
    }
  }
}
MOTION
Frames: 4
Frame Time: 0.03333333333333333
0.0 0.0 0.0 0.0 -0.0 0.0 -0.452166 99.496284 6.046937 93.544067 0.306103 90.231522 -0.179694 -0.679245 0.247075 -10.982825 -0.374857 0.256346 18.014233 -0.82623 -2.054038 26.750391 -5.017408 2.842367 -2.404662 -0.723772 -0.895449 -23.744122 -0.170366 -0.922137 6e-06 0.0 0.0 -0.042788 0.026892 -0.067838 0.030726 0.119265 -0.042938 0.02168 -0.073306 -0.08409 -129.818649 -68.087257 146.049377 11.913599 -20.929888 16.390738 52.575569 0.160534 -0.209037 10.42195 -0.881287 -38.634766 17.636633 -26.322737 52.411194 -19.466658 -14.395597 29.410389 -0.0 -8.774821 -2e-06 15.735849 -18.096792 6.425353 -0.60978 -1.795655 -3.889326 -4.807088 -11.04681 -2.93785 4e-06 -20.976015 1e-06 -5.01997 -25.033556 -4.03188 6e-06 -0.0 -1e-06 -10.634537 -5.686972 -3.565588 10.573276 -17.922951 -3.113898 1e-06 -13.821208 1e-06 -0.501779 -31.181505 -4.02701 -11.795263 -59.155388 7.394073 -13.982714 -7.150197 -2.875043 13.772731 -8.401491 -3.21824 0.347731 -34.211544 0.771661 -0.963032 -17.733368 2.62102 -1e-06 -1e-06 -1e-06 -17.346416 -20.095217 -4.201783 21.757555 -1.638376 3.866429 3e-06 -6.338822 1e-06 -1.697586 -22.591745 -6.194006 -0.0 -3e-06 -2e-06 45.359909 -74.654739 151.248581 20.100475 -24.634163 4.471487 44.861904 0.252748 0.854774 7.220417 -5.337575 -10.650015 22.182114 -20.375891 49.933323 -16.701811 -16.743526 28.47653 -1e-06 -12.690601 -2e-06 15.744833 -17.776508 3.163735 -0.105917 -1.513855 -4.275882 -5.039044 -5.612873 -2.953556 5e-06 -11.020525 -3e-06 -6.1113 -15.895334 -3.840472 1e-06 0.0 -0.0 -10.283373 -5.680292 -4.34184 11.028296 -11.302404 -2.372632 -1.384268 -14.238581 -6.320123 -0.625438 -26.924191 -3.8276 -4.274699 -49.795128 -3.514727 -13.708527 -7.36348 -3.72094 18.141151 -14.052739 -3.242672 6e-06 -18.787271 -3e-06 -0.42971 -8.456044 2.555505 1e-06 0.0 -0.0 -15.923539 -20.094492 -5.473584 30.419218 -7.190826 1.735927 4e-06 -8.162925 -3e-06 -1.861903 -22.861473 -6.167943 -0.0 -3e-06 -0.0 -176.624954 -3.83831 -9.072222 5.579847 -0.088126 0.109111 -73.953194 -6.794974 -14.379743 -4.579114 1.425186 2.107803 -0.999999 0.0 0.0 5.517371 -14.321262 -8.544567 5.28773 -0.052102 0.169109 -76.7845 -0.186409 -13.479931 -4.008094 0.722542 1.699422 -1.0 -0.0 -0.0 
0.0 0.0 0.0 0.0 -0.0 0.0 -0.410396 99.508553 6.086488 93.559952 0.303706 90.147453 -0.167753 -0.702908 0.219414 -10.975657 -0.359731 0.281343 17.981318 -0.820901 -2.091081 26.775801 -4.829892 2.853129 -2.409571 -0.759489 -0.897438 -23.630526 -0.221699 -0.959805 7e-06 -0.0 -0.0 -0.057182 0.020582 -0.053116 0.012741 0.112616 -0.031264 0.00167 -0.078993 -0.067941 -129.423447 -68.182716 145.729141 11.831916 -20.938522 16.156551 52.543182 0.06424 -0.162652 10.672115 -0.997341 -38.531147 17.636633 -26.322733 52.411201 -19.466661 -14.395598 29.410395 -0.0 -8.774822 -2e-06 15.831981 -18.034971 6.340963 -0.609778 -1.795655 -3.889329 -4.807089 -11.046811 -2.93785 2e-06 -20.976021 1e-06 -5.019972 -25.033562 -4.031881 7e-06 -0.0 -0.0 -10.634536 -5.686973 -3.565588 10.573277 -17.922951 -3.113901 2e-06 -13.821209 -0.0 -0.501779 -31.181505 -4.027015 -11.857336 -59.280018 7.539644 -13.982714 -7.150198 -2.875043 13.772728 -8.401491 -3.218241 0.347732 -34.211552 0.771655 -0.963033 -17.733366 2.621019 -1e-06 -1e-06 -2e-06 -17.346416 -20.095217 -4.201784 21.757555 -1.638375 3.866428 2e-06 -6.338823 1e-06 -1.69759 -22.591747 -6.194008 0.0 -4e-06 -3e-06 45.384983 -74.681335 151.292206 19.841087 -24.585789 4.737989 44.908913 0.387301 0.861886 7.416475 -5.584768 -10.630875 22.182119 -20.375895 49.933323 -16.701813 -16.74353 28.47653 -1e-06 -12.690604 -3e-06 15.809498 -17.795162 3.149495 -0.105919 -1.513853 -4.275883 -5.039043 -5.612872 -2.953555 4e-06 -11.020525 -0.0 -6.111302 -15.895334 -3.840471 1e-06 1e-06 1e-06 -10.283372 -5.680287 -4.341839 11.028296 -11.302406 -2.372631 -1.38427 -14.238583 -6.320121 -0.62544 -26.924191 -3.827602 -4.289803 -49.991577 -3.453408 -13.708529 -7.363476 -3.720938 18.141151 -14.052738 -3.242674 5e-06 -18.78727 -2e-06 -0.429713 -8.456045 2.555504 -0.0 1e-06 -2e-06 -15.923539 -20.094486 -5.473584 30.419222 -7.190827 1.735927 3e-06 -8.162927 -2e-06 -1.861906 -22.861473 -6.167942 0.0 -1e-06 -2e-06 -176.584793 -3.809433 -9.108458 5.50103 -0.066759 0.160837 -73.90374 -6.711686 -14.457371 -4.621501 1.454005 2.118702 -0.999999 -1e-06 -0.0 5.50089 -14.37707 -8.580673 5.263237 -0.055701 0.143849 -76.749619 -0.044358 -13.431721 -4.075161 0.705476 1.693064 -1.000003 0.0 -0.0 
0.0 0.0 0.0 0.0 -0.0 0.0 -0.401602 99.506798 6.054029 93.588425 0.289857 90.069992 -0.17615 -0.737462 0.207675 -10.97215 -0.370878 0.281628 17.998581 -0.774292 -2.099282 26.801052 -4.668957 2.877489 -2.449329 -0.757969 -0.946235 -23.524063 -0.258331 -0.945435 6e-06 -0.0 -0.0 -0.062095 0.021772 -0.059171 -0.005161 0.108205 -0.03668 -0.012369 -0.07234 -0.076238 -129.322357 -68.262863 145.696701 11.673301 -20.816391 16.061007 52.629871 -0.00156 -0.162813 10.822621 -1.205706 -38.60939 17.636627 -26.322733 52.411194 -19.466665 -14.395598 29.410393 -1e-06 -8.774824 -2e-06 15.873165 -18.021393 6.316613 -0.609776 -1.795653 -3.889327 -4.807087 -11.04681 -2.937851 6e-06 -20.976019 -1e-06 -5.019969 -25.033556 -4.031878 8e-06 2e-06 -0.0 -10.634535 -5.686969 -3.565587 10.573277 -17.922951 -3.113903 3e-06 -13.821209 -0.0 -0.501774 -31.181505 -4.027014 -11.911537 -59.337708 7.610384 -13.982711 -7.150197 -2.875042 13.772733 -8.401494 -3.218244 0.347741 -34.211555 0.771652 -0.963027 -17.733368 2.621019 -1e-06 -1e-06 -1e-06 -17.346416 -20.095217 -4.201783 21.757561 -1.638376 3.866427 3e-06 -6.338823 1e-06 -1.697587 -22.591745 -6.194006 -1e-06 -3e-06 -3e-06 45.129803 -74.621223 151.615112 19.53886 -24.344427 5.134224 44.976505 0.503438 0.846781 7.508633 -5.678471 -10.747386 22.182112 -20.375887 49.933315 -16.701813 -16.743528 28.47653 -3e-06 -12.690601 -3e-06 15.828535 -17.779076 3.1711 -0.105919 -1.513855 -4.275882 -5.039042 -5.612872 -2.953557 5e-06 -11.020521 -3e-06 -6.111296 -15.89533 -3.84047 1e-06 1e-06 -1e-06 -10.283368 -5.680287 -4.341839 11.028291 -11.302406 -2.372631 -1.384269 -14.23858 -6.320122 -0.625434 -26.924187 -3.827601 -4.291401 -50.095741 -3.403363 -13.708523 -7.363473 -3.720938 18.141146 -14.052739 -3.242674 8e-06 -18.78727 -6e-06 -0.429711 -8.456043 2.555504 1e-06 1e-06 -2e-06 -15.923536 -20.094482 -5.473584 30.41921 -7.190828 1.735925 3e-06 -8.162925 -2e-06 -1.8619 -22.861471 -6.167945 -0.0 -3e-06 -2e-06 -176.580399 -3.785218 -9.176034 5.443777 -0.054585 0.184252 -73.890564 -6.580671 -14.483872 -4.625737 1.460156 2.126149 -0.999999 0.0 0.0 5.467512 -14.449127 -8.609146 5.245785 -0.050251 0.115013 -76.732857 0.130697 -13.443042 -4.093277 0.703439 1.69311 -1.000002 -0.0 0.0 
0.0 0.0 0.0 0.0 -0.0 0.0 -0.393542 99.493233 5.984042 93.619698 0.291106 89.987991 -0.171607 -0.78563 0.194171 -10.982186 -0.383931 0.286094 18.046286 -0.722957 -2.074812 26.804668 -4.516934 2.895911 -2.481042 -0.753933 -0.978286 -23.485903 -0.260177 -0.942796 6e-06 -0.0 -0.0 -0.06228 0.02283 -0.063484 -0.020986 0.102315 -0.039918 -0.025747 -0.06444 -0.082468 -129.307251 -68.324409 145.748184 11.558592 -20.646585 15.99636 52.75172 -0.073316 -0.186075 10.866102 -1.292919 -38.710304 17.636631 -26.322733 52.411201 -19.46666 -14.395596 29.410389 -0.0 -8.774819 -2e-06 15.871217 -17.994823 6.319105 -0.609778 -1.795654 -3.889327 -4.807086 -11.046811 -2.937851 2e-06 -20.976021 -0.0 -5.019969 -25.03356 -4.031882 6e-06 -1e-06 -1e-06 -10.634535 -5.686971 -3.565588 10.573276 -17.922955 -3.113901 1e-06 -13.821209 -1e-06 -0.501778 -31.181507 -4.027016 -11.938187 -59.327988 7.655033 -13.982712 -7.150199 -2.875043 13.772729 -8.401493 -3.218241 0.347734 -34.211555 0.771653 -0.96303 -17.73337 2.621019 -1e-06 -1e-06 -2e-06 -17.34642 -20.095221 -4.201782 21.757557 -1.638374 3.866429 2e-06 -6.338824 1e-06 -1.69759 -22.591747 -6.194009 -1e-06 -4e-06 -2e-06 44.798676 -74.515053 151.988632 19.251188 -24.081165 5.607337 45.053318 0.613398 0.880528 7.533298 -5.706334 -10.874079 22.182121 -20.375891 49.933308 -16.701811 -16.743528 28.476528 -3e-06 -12.6906 -3e-06 15.814166 -17.758627 3.204857 -0.105918 -1.513856 -4.275881 -5.039042 -5.612871 -2.953556 5e-06 -11.020523 -3e-06 -6.111296 -15.89533 -3.84047 1e-06 1e-06 -1e-06 -10.283372 -5.680288 -4.341836 11.028294 -11.302406 -2.372634 -1.384269 -14.238581 -6.320119 -0.625437 -26.924187 -3.8276 -4.321348 -50.116608 -3.333566 -13.708523 -7.363475 -3.72094 18.141148 -14.05274 -3.242673 8e-06 -18.78727 -3e-06 -0.429711 -8.456043 2.555504 1e-06 0.0 -2e-06 -15.923532 -20.094482 -5.473584 30.41921 -7.190828 1.735928 2e-06 -8.162925 -2e-06 -1.861901 -22.861467 -6.167943 -0.0 -3e-06 -2e-06 -176.583786 -3.757181 -9.28448 5.416757 -0.052856 0.189712 -73.917763 -6.477427 -14.506541 -4.649472 1.46354 2.12705 -0.999998 -0.0 0.0 5.437219 -14.517854 -8.602775 5.227176 -0.048924 0.093388 -76.73484 0.299699 -13.461957 -4.139589 0.696281 1.689696 -1.000001 1e-06 -0.0 
